<?xml version="1.0" encoding="UTF-8"?>
<svg width="512px" height="512px" enable-background="new 0 0 277.927 277.927" version="1.1" viewBox="0 0 277.927 277.927" xml:space="preserve" xmlns="http://www.w3.org/2000/svg">
	<g fill="#1a1a1a">
		<path d="m165.69 155h-149.65c-8.551 0-16.034-7.483-16.034-16.035s7.483-16.034 16.034-16.034h149.65c8.552 0 16.034 7.483 16.034 16.034 0 8.552-7.482 16.035-16.034 16.035z"/>
			<path d="m261.89 58.792h-245.86c-8.551 0-16.034-7.482-16.034-16.034s7.483-16.034 16.034-16.034h245.86c8.552 0 16.034 7.483 16.034 16.034s-7.482 16.034-16.033 16.034z"/>
			<path d="m261.89 251.2h-245.86c-8.551 0-16.034-7.482-16.034-16.034s7.483-16.034 16.034-16.034h245.86c8.552 0 16.034 7.483 16.034 16.034s-7.482 16.034-16.033 16.034z"/>
	</g>
</svg>
