<?xml version="1.0" encoding="UTF-8"?>
<svg width="512px" height="512px" enable-background="new 0 0 563.43 563.43" version="1.1" viewBox="0 0 563.43 563.43" xml:space="preserve" xmlns="http://www.w3.org/2000/svg">
<path d="m280.79 314.56c83.266 0 150.8-67.538 150.8-150.8s-67.538-150.34-150.8-150.34-150.8 67.538-150.8 150.34 67.537 150.8 150.8 150.8zm0-261.82c61.061 0 111.02 49.959 111.02 111.02s-49.96 111.02-111.02 111.02-111.02-49.959-111.02-111.02 49.959-111.02 111.02-111.02z" fill="#1a1a1a"/>
<path d="m19.891 550.02h523.65c11.102 0 19.891-8.789 19.891-19.891 0-104.08-84.653-189.2-189.2-189.2h-185.03c-104.08 0-189.2 84.653-189.2 189.2 0 11.102 8.789 19.891 19.891 19.891zm169.31-169.31h185.03c75.864 0 138.31 56.436 148.03 129.52h-481.09c9.714-72.625 72.164-129.52 148.03-129.52z" fill="#1a1a1a"/>
</svg>
